<svg width="19" height="16" viewBox="0 0 19 16" fill="none" xmlns="http://www.w3.org/2000/svg">
<path fill-rule="evenodd" clip-rule="evenodd" d="M2.00049 8.14749C2.00049 7.78603 2.32759 7.49295 2.73108 7.49295H15.8818C16.2852 7.49295 16.6124 7.78603 16.6124 8.14749C16.6124 8.50901 16.2852 8.80203 15.8818 8.80203H2.73108C2.32759 8.80203 2.00049 8.50901 2.00049 8.14749Z" fill="white"/>
<path fill-rule="evenodd" clip-rule="evenodd" d="M10.9817 3.75756C11.2669 3.50196 11.7296 3.50196 12.0149 3.75756L16.3984 7.68471C16.6837 7.94025 16.6837 8.35473 16.3984 8.61033L12.0149 12.5374C11.7296 12.793 11.2669 12.793 10.9817 12.5374C10.6964 12.2818 10.6964 11.8674 10.9817 11.6118L14.8486 8.14749L10.9817 4.68319C10.6964 4.42758 10.6964 4.01317 10.9817 3.75756Z" fill="white"/>
</svg>
