<svg width="65" height="64" viewBox="0 0 65 64" fill="none" xmlns="http://www.w3.org/2000/svg">
<path d="M56.403 29.4667L34.6696 7.73342C34.003 7.06675 33.0696 6.66675 32.1363 6.66675C31.203 6.66675 30.2696 7.06675 29.603 7.73342L24.9363 12.4001L30.403 17.8667C30.9363 17.6001 31.4696 17.4667 32.1363 17.4667C34.403 17.4667 36.1363 19.2001 36.1363 21.4667C36.1363 22.1334 36.003 22.6667 35.7363 23.2001L41.0696 28.5334C41.603 28.2667 42.1363 28.1334 42.803 28.1334C45.0696 28.1334 46.803 29.8667 46.803 32.1334C46.803 34.4001 45.0696 36.1334 42.803 36.1334C40.5363 36.1334 38.803 34.4001 38.803 32.1334C38.803 31.4667 38.9363 30.9334 39.203 30.4001L33.8696 25.0667C33.7363 25.0667 33.603 25.2001 33.4696 25.2001V39.0667C35.0696 39.6001 36.1363 41.0667 36.1363 42.8001C36.1363 45.0667 34.403 46.8001 32.1363 46.8001C29.8696 46.8001 28.1363 45.0667 28.1363 42.8001C28.1363 41.0667 29.203 39.6001 30.803 39.0667V25.0667C29.203 24.5334 28.1363 23.0667 28.1363 21.3334C28.1363 20.6667 28.2696 20.1334 28.5363 19.6001L23.0696 14.1334L7.86965 29.4667C7.20298 30.1334 6.80298 31.0667 6.80298 32.0001C6.80298 32.9334 7.20298 33.8667 7.86965 34.5334L29.603 56.2668C30.2696 56.9334 31.203 57.3334 32.1363 57.3334C33.0696 57.3334 34.003 56.9334 34.6696 56.2668L56.403 34.5334C57.0696 33.8667 57.4696 32.9334 57.4696 32.0001C57.4696 31.0667 57.0696 30.1334 56.403 29.4667Z" fill="#F4511E"/>
</svg>
