<svg width="34" height="35" viewBox="0 0 34 35" fill="none" xmlns="http://www.w3.org/2000/svg">
<path fill-rule="evenodd" clip-rule="evenodd" d="M8.08345 17.4659C8.08345 12.5124 11.9036 8.49693 16.616 8.49693C21.3284 8.49693 25.1485 12.5124 25.1485 17.4659C25.1485 22.4194 21.3284 26.4349 16.616 26.4349C11.9036 26.4349 8.08345 22.4194 8.08345 17.4659ZM16.616 23.2879C13.557 23.2879 11.0773 20.6813 11.0773 17.4659C11.0773 14.2505 13.557 11.6439 16.616 11.6439C19.6749 11.6439 22.1546 14.2505 22.1546 17.4659C22.1546 20.6813 19.6749 23.2879 16.616 23.2879Z" fill="url(#paint0_linear_267_1359)"/>
<path fill-rule="evenodd" clip-rule="evenodd" d="M8.08345 17.4659C8.08345 12.5124 11.9036 8.49693 16.616 8.49693C21.3284 8.49693 25.1485 12.5124 25.1485 17.4659C25.1485 22.4194 21.3284 26.4349 16.616 26.4349C11.9036 26.4349 8.08345 22.4194 8.08345 17.4659ZM16.616 23.2879C13.557 23.2879 11.0773 20.6813 11.0773 17.4659C11.0773 14.2505 13.557 11.6439 16.616 11.6439C19.6749 11.6439 22.1546 14.2505 22.1546 17.4659C22.1546 20.6813 19.6749 23.2879 16.616 23.2879Z" fill="url(#paint1_radial_267_1359)"/>
<path d="M25.4856 10.2385C26.5868 10.2385 27.4795 9.30013 27.4795 8.14258C27.4795 6.98503 26.5868 6.04664 25.4856 6.04664C24.3844 6.04664 23.4917 6.98503 23.4917 8.14258C23.4917 9.30013 24.3844 10.2385 25.4856 10.2385Z" fill="url(#paint2_linear_267_1359)"/>
<path d="M25.4856 10.2385C26.5868 10.2385 27.4795 9.30013 27.4795 8.14258C27.4795 6.98503 26.5868 6.04664 25.4856 6.04664C24.3844 6.04664 23.4917 6.98503 23.4917 8.14258C23.4917 9.30013 24.3844 10.2385 25.4856 10.2385Z" fill="url(#paint3_radial_267_1359)"/>
<path fill-rule="evenodd" clip-rule="evenodd" d="M16.616 0C12.1033 0 11.5375 0.020106 9.76523 0.105106C7.99665 0.189898 6.78878 0.485179 5.73188 0.916972C4.63923 1.36326 3.7126 1.96047 2.7888 2.93145C1.86507 3.9025 1.29692 4.87654 0.87235 6.02507C0.461568 7.13604 0.180657 8.40569 0.0999911 10.2647C0.0191276 12.1277 0 12.7225 0 17.4659C0 22.2094 0.0191276 22.8042 0.0999911 24.6671C0.180657 26.5261 0.461568 27.7958 0.87235 28.9067C1.29692 30.0553 1.86507 31.0293 2.7888 32.0004C3.7126 32.9713 4.63923 33.5686 5.73188 34.0149C6.78878 34.4466 7.99665 34.7419 9.76523 34.8267C11.5375 34.9117 12.1033 34.9318 16.616 34.9318C21.1286 34.9318 21.6944 34.9117 23.4667 34.8267C25.2353 34.7419 26.4432 34.4466 27.5001 34.0149C28.5927 33.5686 29.5193 32.9713 30.4431 32.0004C31.3669 31.0293 31.935 30.0553 32.3597 28.9067C32.7704 27.7958 33.0513 26.5261 33.1319 24.6671C33.2128 22.8042 33.2319 22.2094 33.2319 17.4659C33.2319 12.7225 33.2128 12.1277 33.1319 10.2647C33.0513 8.40569 32.7704 7.13604 32.3597 6.02507C31.935 4.87654 31.3669 3.9025 30.4431 2.93145C29.5193 1.96047 28.5927 1.36326 27.5001 0.916972C26.4432 0.485179 25.2353 0.189898 23.4667 0.105106C21.6944 0.020106 21.1286 0 16.616 0ZM16.616 3.147C21.0526 3.147 21.5782 3.16482 23.3303 3.24885C24.9503 3.3265 25.8301 3.61104 26.4156 3.85023C27.1912 4.16707 27.7447 4.54555 28.3261 5.15677C28.9076 5.76793 29.2677 6.34975 29.5691 7.16502C29.7966 7.78047 30.0673 8.70527 30.1412 10.4082C30.2211 12.2499 30.2381 12.8023 30.2381 17.4659C30.2381 22.1295 30.2211 22.6819 30.1412 24.5236C30.0673 26.2265 29.7966 27.1513 29.5691 27.7668C29.2677 28.5821 28.9076 29.1639 28.3261 29.775C27.7447 30.3863 27.1912 30.7647 26.4156 31.0816C25.8301 31.3208 24.9503 31.6053 23.3303 31.683C21.5784 31.767 21.0529 31.7848 16.616 31.7848C12.179 31.7848 11.6536 31.767 9.9017 31.683C8.28165 31.6053 7.40185 31.3208 6.81635 31.0816C6.04076 30.7647 5.48725 30.3863 4.90583 29.775C4.32442 29.1639 3.9643 28.5821 3.66287 27.7668C3.43532 27.1513 3.16463 26.2265 3.09076 24.5236C3.01082 22.6819 2.99387 22.1295 2.99387 17.4659C2.99387 12.8023 3.01082 12.2499 3.09076 10.4082C3.16463 8.70527 3.43532 7.78047 3.66287 7.16502C3.9643 6.34975 4.32436 5.76793 4.90583 5.15677C5.48725 4.54555 6.04076 4.16707 6.81635 3.85023C7.40185 3.61104 8.28165 3.3265 9.9017 3.24885C11.6538 3.16482 12.1793 3.147 16.616 3.147Z" fill="url(#paint4_linear_267_1359)"/>
<path fill-rule="evenodd" clip-rule="evenodd" d="M16.616 0C12.1033 0 11.5375 0.020106 9.76523 0.105106C7.99665 0.189898 6.78878 0.485179 5.73188 0.916972C4.63923 1.36326 3.7126 1.96047 2.7888 2.93145C1.86507 3.9025 1.29692 4.87654 0.87235 6.02507C0.461568 7.13604 0.180657 8.40569 0.0999911 10.2647C0.0191276 12.1277 0 12.7225 0 17.4659C0 22.2094 0.0191276 22.8042 0.0999911 24.6671C0.180657 26.5261 0.461568 27.7958 0.87235 28.9067C1.29692 30.0553 1.86507 31.0293 2.7888 32.0004C3.7126 32.9713 4.63923 33.5686 5.73188 34.0149C6.78878 34.4466 7.99665 34.7419 9.76523 34.8267C11.5375 34.9117 12.1033 34.9318 16.616 34.9318C21.1286 34.9318 21.6944 34.9117 23.4667 34.8267C25.2353 34.7419 26.4432 34.4466 27.5001 34.0149C28.5927 33.5686 29.5193 32.9713 30.4431 32.0004C31.3669 31.0293 31.935 30.0553 32.3597 28.9067C32.7704 27.7958 33.0513 26.5261 33.1319 24.6671C33.2128 22.8042 33.2319 22.2094 33.2319 17.4659C33.2319 12.7225 33.2128 12.1277 33.1319 10.2647C33.0513 8.40569 32.7704 7.13604 32.3597 6.02507C31.935 4.87654 31.3669 3.9025 30.4431 2.93145C29.5193 1.96047 28.5927 1.36326 27.5001 0.916972C26.4432 0.485179 25.2353 0.189898 23.4667 0.105106C21.6944 0.020106 21.1286 0 16.616 0ZM16.616 3.147C21.0526 3.147 21.5782 3.16482 23.3303 3.24885C24.9503 3.3265 25.8301 3.61104 26.4156 3.85023C27.1912 4.16707 27.7447 4.54555 28.3261 5.15677C28.9076 5.76793 29.2677 6.34975 29.5691 7.16502C29.7966 7.78047 30.0673 8.70527 30.1412 10.4082C30.2211 12.2499 30.2381 12.8023 30.2381 17.4659C30.2381 22.1295 30.2211 22.6819 30.1412 24.5236C30.0673 26.2265 29.7966 27.1513 29.5691 27.7668C29.2677 28.5821 28.9076 29.1639 28.3261 29.775C27.7447 30.3863 27.1912 30.7647 26.4156 31.0816C25.8301 31.3208 24.9503 31.6053 23.3303 31.683C21.5784 31.767 21.0529 31.7848 16.616 31.7848C12.179 31.7848 11.6536 31.767 9.9017 31.683C8.28165 31.6053 7.40185 31.3208 6.81635 31.0816C6.04076 30.7647 5.48725 30.3863 4.90583 29.775C4.32442 29.1639 3.9643 28.5821 3.66287 27.7668C3.43532 27.1513 3.16463 26.2265 3.09076 24.5236C3.01082 22.6819 2.99387 22.1295 2.99387 17.4659C2.99387 12.8023 3.01082 12.2499 3.09076 10.4082C3.16463 8.70527 3.43532 7.78047 3.66287 7.16502C3.9643 6.34975 4.32436 5.76793 4.90583 5.15677C5.48725 4.54555 6.04076 4.16707 6.81635 3.85023C7.40185 3.61104 8.28165 3.3265 9.9017 3.24885C11.6538 3.16482 12.1793 3.147 16.616 3.147Z" fill="url(#paint5_radial_267_1359)"/>
<defs>
<linearGradient id="paint0_linear_267_1359" x1="1.93898" y1="1.83647" x2="13.4404" y2="44.1606" gradientUnits="userSpaceOnUse">
<stop stop-color="#4E60D3"/>
<stop offset="0.142763" stop-color="#913BAF"/>
<stop offset="0.761458" stop-color="#D52D88"/>
<stop offset="1" stop-color="#F26D4F"/>
</linearGradient>
<radialGradient id="paint1_radial_267_1359" cx="0" cy="0" r="1" gradientUnits="userSpaceOnUse" gradientTransform="translate(10.0607 34.9318) rotate(33.4617) scale(31.4948 23.1374)">
<stop stop-color="#FED276"/>
<stop offset="0.17024" stop-color="#FDBD61" stop-opacity="0.975006"/>
<stop offset="0.454081" stop-color="#F6804D"/>
<stop offset="1" stop-color="#E83D5C" stop-opacity="0.01"/>
</radialGradient>
<linearGradient id="paint2_linear_267_1359" x1="1.93898" y1="1.83647" x2="13.4404" y2="44.1606" gradientUnits="userSpaceOnUse">
<stop stop-color="#4E60D3"/>
<stop offset="0.142763" stop-color="#913BAF"/>
<stop offset="0.761458" stop-color="#D52D88"/>
<stop offset="1" stop-color="#F26D4F"/>
</linearGradient>
<radialGradient id="paint3_radial_267_1359" cx="0" cy="0" r="1" gradientUnits="userSpaceOnUse" gradientTransform="translate(10.0607 34.9318) rotate(33.4617) scale(31.4948 23.1374)">
<stop stop-color="#FED276"/>
<stop offset="0.17024" stop-color="#FDBD61" stop-opacity="0.975006"/>
<stop offset="0.454081" stop-color="#F6804D"/>
<stop offset="1" stop-color="#E83D5C" stop-opacity="0.01"/>
</radialGradient>
<linearGradient id="paint4_linear_267_1359" x1="1.93898" y1="1.83647" x2="13.4404" y2="44.1606" gradientUnits="userSpaceOnUse">
<stop stop-color="#4E60D3"/>
<stop offset="0.142763" stop-color="#913BAF"/>
<stop offset="0.761458" stop-color="#D52D88"/>
<stop offset="1" stop-color="#F26D4F"/>
</linearGradient>
<radialGradient id="paint5_radial_267_1359" cx="0" cy="0" r="1" gradientUnits="userSpaceOnUse" gradientTransform="translate(10.0607 34.9318) rotate(33.4617) scale(31.4948 23.1374)">
<stop stop-color="#FED276"/>
<stop offset="0.17024" stop-color="#FDBD61" stop-opacity="0.975006"/>
<stop offset="0.454081" stop-color="#F6804D"/>
<stop offset="1" stop-color="#E83D5C" stop-opacity="0.01"/>
</radialGradient>
</defs>
</svg>
