<svg width="70" height="64" viewBox="0 0 70 64" fill="none" xmlns="http://www.w3.org/2000/svg">
<g clip-path="url(#clip0_2715_1279)">
<path d="M35.091 38.7725C38.7633 38.7725 41.7404 35.7404 41.7404 32C41.7404 28.2597 38.7633 25.2275 35.091 25.2275C31.4187 25.2275 28.4417 28.2597 28.4417 32C28.4417 35.7404 31.4187 38.7725 35.091 38.7725Z" fill="#087EA4"/>
<path d="M35.091 47.2382C53.4527 47.2382 68.3378 40.4158 68.3378 32.0001C68.3378 23.5843 53.4527 16.762 35.091 16.762C16.7293 16.762 1.84424 23.5843 1.84424 32.0001C1.84424 40.4158 16.7293 47.2382 35.091 47.2382Z" stroke="#087EA4" stroke-width="3"/>
<path d="M22.1343 39.619C31.3151 55.8152 44.5586 65.5336 51.7143 61.3257C58.8701 57.1178 57.2284 40.5771 48.0476 24.3809C38.8667 8.18475 25.6233 -1.53366 18.4676 2.67422C11.3118 6.88211 12.9535 23.4228 22.1343 39.619Z" stroke="#087EA4" stroke-width="3"/>
<path d="M22.1344 24.3808C12.9535 40.577 11.3119 57.1177 18.4676 61.3256C25.6234 65.5335 38.8668 55.8151 48.0476 39.6189C57.2285 23.4228 58.8701 6.88205 51.7144 2.67416C44.5586 -1.53372 31.3152 8.18469 22.1344 24.3808Z" stroke="#087EA4" stroke-width="3"/>
</g>
<defs>
<clipPath id="clip0_2715_1279">
<rect width="69.8182" height="64" fill="white" transform="translate(0.181885)"/>
</clipPath>
</defs>
</svg>
