<svg width="64" height="64" viewBox="0 0 64 64" fill="none" xmlns="http://www.w3.org/2000/svg">
<path d="M53.156 34.6079C51.1053 34.6186 49.3293 35.1106 47.8413 35.8452C47.2973 34.7586 46.7453 33.8026 46.6533 33.0919C46.5453 32.2626 46.42 31.7666 46.5507 30.7786C46.6813 29.7906 47.2533 28.3906 47.2453 28.2852C47.2373 28.1799 47.1173 27.6772 45.9347 27.6679C44.752 27.6599 43.74 27.8959 43.6213 28.2079C43.5027 28.5199 43.2747 29.2226 43.1333 29.9559C42.9267 31.0279 40.772 34.8532 39.5493 36.8532C39.1493 36.0719 38.8093 35.3839 38.7387 34.8399C38.6307 34.0106 38.5053 33.5146 38.636 32.5266C38.7667 31.5386 39.3387 30.1386 39.3307 30.0332C39.3227 29.9279 39.2027 29.4252 38.02 29.4159C36.8373 29.4079 35.8253 29.6439 35.7067 29.9559C35.588 30.2679 35.46 30.9972 35.2187 31.7039C34.976 32.4092 32.1133 38.7892 31.3627 40.4439C30.98 41.2866 30.648 41.9639 30.4133 42.4252L30.412 42.4226C30.412 42.4226 30.3973 42.4532 30.3733 42.5052C30.172 42.8986 30.0533 43.1159 30.0533 43.1159C30.0533 43.1159 30.0547 43.1186 30.0573 43.1239C29.8973 43.4132 29.7267 43.6812 29.6427 43.6812C29.584 43.6812 29.4653 42.9119 29.668 41.8559C30.0947 39.6426 31.1173 36.1919 31.108 36.0719C31.1027 36.0106 31.2987 35.4092 30.44 35.0946C29.6053 34.7892 29.308 35.2986 29.232 35.2999C29.1587 35.3012 29.104 35.4799 29.104 35.4799C29.104 35.4799 30.0333 31.5986 27.3307 31.5986C25.64 31.5986 23.2987 33.4479 22.1453 35.1239C21.4173 35.5212 19.8587 36.3719 18.2067 37.2799C17.572 37.6292 16.924 37.9852 16.3093 38.3239C16.268 38.2772 16.2253 38.2319 16.1827 38.1852C12.904 34.6879 6.84535 32.2146 7.10135 27.5119C7.19468 25.8026 7.78935 21.3012 18.7453 15.8426C27.72 11.3706 34.9053 12.6012 36.1467 15.3279C37.92 19.2252 32.3067 26.4666 22.9867 27.5119C19.436 27.9106 17.5653 26.5332 17.1 26.0212C16.6107 25.4812 16.5373 25.4572 16.3547 25.5586C16.0573 25.7239 16.2453 26.1999 16.3547 26.4839C16.6333 27.2079 17.7747 28.4919 19.7213 29.1319C21.4347 29.6946 25.604 30.0026 30.6453 28.0519C36.2933 25.8679 40.7027 19.7906 39.4067 14.7119C38.0893 9.54658 29.524 7.84791 21.4173 10.7279C16.5867 12.4426 11.364 15.1332 7.60801 18.6452C3.14268 22.8212 2.43068 26.4572 2.72401 27.9759C3.76668 33.3732 11.2053 36.8879 14.184 39.4919C14.0373 39.5732 13.8987 39.6492 13.7733 39.7186C12.28 40.4572 6.60935 43.4252 5.19068 46.5599C3.58135 50.1159 5.44668 52.6679 6.68135 53.0119C10.5067 54.0759 14.432 52.1612 16.5427 49.0146C18.652 45.8692 18.3947 41.7719 17.4267 39.9026C17.4147 39.8799 17.4013 39.8572 17.3893 39.8332C17.7747 39.6052 18.168 39.3732 18.5573 39.1439C19.3173 38.6972 20.064 38.2812 20.7107 37.9292C20.348 38.9212 20.0827 40.1119 19.9453 41.8306C19.7827 43.8492 20.6107 46.4586 21.6933 47.4852C22.1707 47.9372 22.744 47.9479 23.1067 47.9479C24.3667 47.9479 24.9413 46.8999 25.5747 45.6599C26.3507 44.1399 27.04 42.3692 27.04 42.3692C27.04 42.3692 26.176 47.1506 28.5307 47.1506C29.3893 47.1506 30.252 46.0372 30.6373 45.4706C30.6387 45.4772 30.6387 45.4799 30.6387 45.4799C30.6387 45.4799 30.6613 45.4426 30.7053 45.3692C30.7947 45.2332 30.8453 45.1466 30.8453 45.1466C30.8453 45.1466 30.8467 45.1372 30.8493 45.1212C31.1947 44.5226 31.96 43.1572 33.1067 40.9052C34.5893 37.9959 36.0107 34.3506 36.0107 34.3506C36.0107 34.3506 36.1427 35.2412 36.576 36.7159C36.8307 37.5826 37.372 38.5412 37.8 39.4612C37.456 39.9386 37.2453 40.2119 37.2453 40.2119C37.2453 40.2119 37.2467 40.2172 37.2507 40.2266C36.976 40.5919 36.668 40.9852 36.3453 41.3692C35.1747 42.7626 33.7813 44.3546 33.5947 44.8132C33.3747 45.3546 33.4267 45.7519 33.852 46.0732C34.1627 46.3066 34.7147 46.3439 35.292 46.3052C36.344 46.2346 37.0827 45.9732 37.448 45.8146C38.0173 45.6132 38.68 45.2972 39.3013 44.8399C40.4493 43.9959 41.1413 42.7892 41.0747 41.1892C41.0373 40.3079 40.7573 39.4346 40.4013 38.6106C40.5053 38.4612 40.6093 38.3092 40.7147 38.1572C42.524 35.5119 43.928 32.6052 43.928 32.6052C43.928 32.6052 44.06 33.4959 44.4933 34.9706C44.712 35.7159 45.1453 36.5306 45.5347 37.3279C43.8333 38.7106 42.7787 40.3172 42.412 41.3706C41.7347 43.3199 42.2653 44.2026 43.26 44.4039C43.7107 44.4946 44.348 44.2879 44.8267 44.0852C45.4227 43.8879 46.1387 43.5586 46.808 43.0666C47.956 42.2226 49.06 41.0412 48.9933 39.4426C48.9627 38.7146 48.7653 37.9919 48.4973 37.2986C49.94 36.6972 51.8067 36.3639 54.1853 36.6412C59.288 37.2372 60.288 40.4226 60.0973 41.7559C59.9053 43.0892 58.836 43.8226 58.4773 44.0439C58.12 44.2652 58.0107 44.3426 58.04 44.5066C58.084 44.7452 58.2493 44.7372 58.5547 44.6852C58.9747 44.6146 61.2333 43.6012 61.3307 41.1399C61.452 38.0119 58.4587 34.5799 53.156 34.6079ZM13.8267 47.8666C12.136 49.7106 9.77601 50.4066 8.76268 49.8199C7.66935 49.1866 8.10268 46.4719 10.176 44.5146C11.44 43.3226 13.072 42.2239 14.1547 41.5479C14.4013 41.3999 14.7627 41.1826 15.2027 40.9186C15.276 40.8772 15.3173 40.8546 15.3173 40.8546L15.316 40.8519C15.4013 40.8012 15.488 40.7492 15.5773 40.6946C16.3333 43.4799 15.6013 45.9319 13.8267 47.8666ZM26.14 39.4972C25.552 40.9319 24.32 44.6039 23.5693 44.4066C22.9253 44.2372 22.5333 41.4466 23.4413 38.6999C23.8973 37.3172 24.8733 35.6652 25.4467 35.0239C26.3693 33.9919 27.3853 33.6546 27.632 34.0732C27.9453 34.6066 26.5093 38.5972 26.14 39.4972ZM36.312 44.3506C36.0627 44.4812 35.8333 44.5626 35.728 44.4999C35.6493 44.4532 35.8307 44.2812 35.8307 44.2812C35.8307 44.2812 37.1027 42.9119 37.604 42.2892C37.896 41.9266 38.2333 41.4959 38.6013 41.0159C38.604 41.0639 38.6053 41.1119 38.6053 41.1586C38.6027 42.7986 37.0187 43.9052 36.312 44.3506ZM44.148 42.5639C43.9613 42.4319 43.9933 42.0039 44.6053 40.6692C44.8453 40.1452 45.3947 39.2639 46.3467 38.4212C46.4573 38.7679 46.524 39.0999 46.5227 39.4092C46.5107 41.4732 45.0387 42.2439 44.148 42.5639Z" fill="#F06292"/>
</svg>
