<svg width="65" height="64" viewBox="0 0 65 64" fill="none" xmlns="http://www.w3.org/2000/svg">
<g clip-path="url(#clip0_2715_1274)">
<path d="M61.5909 0H3.59094C1.93409 0 0.590942 1.34315 0.590942 3V61C0.590942 62.6569 1.93409 64 3.59094 64H61.5909C63.2478 64 64.5909 62.6569 64.5909 61V3C64.5909 1.34315 63.2478 0 61.5909 0Z" fill="#3178C6"/>
<path fill-rule="evenodd" clip-rule="evenodd" d="M37.722 49.734V56.747C38.8582 57.331 40.2019 57.7695 41.7533 58.0615C43.3046 58.354 44.9397 58.5 46.6585 58.5C48.3337 58.5 49.925 58.3395 51.4324 58.018C52.9404 57.6965 54.2619 57.167 55.3984 56.429C56.5344 55.691 57.4339 54.727 58.0969 53.536C58.7594 52.3455 59.0909 50.8735 59.0909 49.1203C59.0909 47.8493 58.9014 46.7353 58.5229 45.7783C58.1439 44.8214 57.5979 43.9704 56.8839 43.2252C56.1704 42.4801 55.3144 41.8117 54.3169 41.22C53.3189 40.6283 52.1939 40.0694 50.9409 39.5435C50.0233 39.1636 49.2003 38.7947 48.472 38.4368C47.7437 38.0788 47.1246 37.7136 46.6148 37.341C46.105 36.9684 45.7117 36.574 45.4349 36.1576C45.1582 35.7413 45.0198 35.27 45.0198 34.7441C45.0198 34.2619 45.1436 33.8273 45.3912 33.4402C45.6389 33.053 45.9885 32.7206 46.44 32.443C46.8916 32.1655 47.4451 31.95 48.1006 31.7966C48.7561 31.6431 49.4844 31.5664 50.2855 31.5664C50.8684 31.5664 51.4834 31.6103 52.1319 31.6979C52.7799 31.7856 53.4319 31.9207 54.0874 32.1034C54.7429 32.286 55.3799 32.5161 55.9994 32.7937C56.6184 33.0713 57.1899 33.3927 57.7144 33.7579V27.2054C56.6509 26.7963 55.4894 26.4931 54.2294 26.2959C52.9694 26.0986 51.5239 26 49.8922 26C48.2317 26 46.6585 26.1789 45.1727 26.5369C43.687 26.8948 42.3796 27.4537 41.2507 28.2134C40.1218 28.9731 39.2296 29.941 38.5742 31.1171C37.9187 32.2932 37.5909 33.6995 37.5909 35.3358C37.5909 37.4251 38.1918 39.2074 39.3935 40.683C40.5953 42.1587 42.4197 43.4079 44.8668 44.4305C45.8282 44.825 46.7241 45.2122 47.5543 45.592C48.3846 45.9719 49.102 46.3664 49.7065 46.7755C50.311 47.1846 50.7879 47.6302 51.1374 48.1123C51.4874 48.5944 51.6619 49.1423 51.6619 49.7559C51.6619 50.209 51.5529 50.629 51.3344 51.016C51.1159 51.403 50.7844 51.739 50.3402 52.024C49.8959 52.309 49.3424 52.532 48.6796 52.6925C48.0168 52.853 47.2412 52.9335 46.3526 52.9335C44.8377 52.9335 43.3374 52.667 41.8516 52.1335C40.3658 51.6005 38.9893 50.8005 37.722 49.734ZM25.9422 32.2772H35.0909V26.5H9.59094V32.2772H18.6949V58H25.9422V32.2772Z" fill="white"/>
</g>
<defs>
<clipPath id="clip0_2715_1274">
<rect width="64" height="64" fill="white" transform="translate(0.590942)"/>
</clipPath>
</defs>
</svg>
