<svg width="33" height="35" viewBox="0 0 33 35" fill="none" xmlns="http://www.w3.org/2000/svg">
<path d="M11.6551 9.34122C11.9407 9.35384 12.2567 9.36829 12.5569 10.0887C12.762 10.5813 13.1072 11.4995 13.3823 12.2312C13.585 12.7704 13.7497 13.2084 13.7922 13.3001C13.8924 13.5165 13.9591 13.7691 13.8256 14.058C13.8056 14.1012 13.7871 14.142 13.7694 14.1809C13.669 14.4021 13.5953 14.5647 13.4252 14.7795C13.3586 14.8635 13.2897 14.9539 13.2209 15.0444C13.0825 15.2261 12.9442 15.4077 12.8241 15.5371C12.6231 15.7528 12.4143 15.9872 12.6481 16.4199C12.8819 16.853 13.6862 18.2692 14.8774 19.4159C16.1571 20.6478 17.2688 21.1688 17.8334 21.4334C17.9443 21.4854 18.034 21.5275 18.0998 21.5631C18.5006 21.7795 18.7344 21.7434 18.9681 21.4543C19.202 21.1658 19.9695 20.1915 20.2367 19.7588C20.5038 19.3257 20.771 19.3979 21.1383 19.5421C21.5058 19.6863 23.4758 20.7331 23.8766 20.9494C23.9547 20.9916 24.0278 21.0297 24.0955 21.065C24.3752 21.2107 24.564 21.3091 24.6447 21.4543C24.7449 21.6353 24.7449 22.5011 24.4109 23.5112C24.077 24.5215 22.4409 25.4957 21.7061 25.5679C21.6354 25.5748 21.5651 25.5837 21.4928 25.5929C20.8139 25.6791 19.9568 25.7879 16.8975 24.4855C13.1331 22.8827 10.6511 18.9109 10.1383 18.0903C10.0962 18.023 10.0674 17.9769 10.0522 17.955L10.0478 17.9486C9.83171 17.6368 8.416 15.5941 8.416 13.4805C8.416 11.4881 9.3231 10.4437 9.74046 9.96312C9.76898 9.93028 9.79522 9.90008 9.81872 9.87239C10.1858 9.43944 10.62 9.33109 10.8872 9.33109C10.9018 9.33109 10.9165 9.33109 10.9311 9.33109C11.1834 9.33105 11.4344 9.33102 11.6551 9.34122Z" fill="url(#paint0_linear_267_1360)"/>
<path fill-rule="evenodd" clip-rule="evenodd" d="M2.684 25.9543C1.26041 23.3345 0.516258 20.3652 0.516258 17.2912C0.516258 7.75486 7.73127 0 16.564 0C20.8671 0 24.8791 1.81645 27.9204 5.06511C30.9293 8.3487 32.6118 12.6802 32.6118 17.3262C32.6118 26.8626 25.3967 34.6174 16.564 34.6174C13.8786 34.6174 11.2255 33.9188 8.89603 32.5215L0.386841 34.9318L2.684 25.9543ZM5.27234 24.9762L5.59589 25.5002L4.23701 30.8099L9.28428 29.3777L9.7696 29.692C11.8079 31.0195 14.1698 31.7181 16.564 31.7181C23.9084 31.7181 29.894 25.2557 29.894 17.3262C29.894 13.4837 28.5028 9.85077 25.9791 7.12609C23.4878 4.43634 20.123 2.93427 16.564 2.93427C9.21957 2.93427 3.23402 9.36173 3.23402 17.3262C3.23402 20.0159 3.94582 22.6707 5.27234 24.9762Z" fill="url(#paint1_linear_267_1360)"/>
<defs>
<linearGradient id="paint0_linear_267_1360" x1="0.386841" y1="17.4678" x2="32.6118" y2="17.4678" gradientUnits="userSpaceOnUse">
<stop stop-color="#20B038"/>
<stop offset="1" stop-color="#60D66A"/>
</linearGradient>
<linearGradient id="paint1_linear_267_1360" x1="0.386841" y1="17.4678" x2="32.6118" y2="17.4678" gradientUnits="userSpaceOnUse">
<stop stop-color="#20B038"/>
<stop offset="1" stop-color="#60D66A"/>
</linearGradient>
</defs>
</svg>
